<svg xmlns="http://www.w3.org/2000/svg" viewBox="0 0 1567.56 318.79"><defs><style>.cls-1{fill:#25346d;}.cls-2{fill:#56565a;}.cls-3{fill:#fff;}</style></defs><g id="imagotipo-horizontal"><path class="cls-1" d="M165.71,86.58,151,159.11l-52.7,23.8h106L233.45,36.38A137.15,137.15,0,0,0,75.49,256L109.61,86.58Z"/><path class="cls-1" d="M135.67,232.78l-10.75,55.16a136.87,136.87,0,0,0,47.87,8.59q4,0,8-.24l12.12-63.51Z"/><path class="cls-2" d="M309.92,159.4a136.58,136.58,0,0,0-26.15-80.57L244.36,276.39A137,137,0,0,0,309.92,159.4Z"/><path class="cls-3" d="M233.45,36.38,204.24,182.91h-106l52.7-23.8,14.74-72.53h-56.1L75.49,256a137.31,137.31,0,0,0,49.43,31.91l10.75-55.16h57.24l-12.12,63.51a136.2,136.2,0,0,0,63.57-19.9L283.77,78.83A137.91,137.91,0,0,0,233.45,36.38Z"/><path class="cls-2" d="M359.68,115.26h32.84v46.83l68.76-.12V115.25h33.54L495,238.31l-33.72.11V185.74H392.51v52.68H359.68Z"/><path class="cls-2" d="M551.86,194.56l-53.4-79.23h39.47l30.56,53.45,31-53.45H639l-53.33,79V238.5H551.86Z"/><path class="cls-2" d="M643.84,115.25l75,.1c37.25,0,60.15,21,60.15,61.64,0,35.52-15.69,61.43-59.58,61.43H643.66Zm33.45,98.83,36.72.11c18.32,0,31.25-7.77,31.25-34.88,0-24.7-5.08-39.58-36.49-39.58l-31.48-.11Z"/><path class="cls-2" d="M794.61,115.33h87.22c25.77,0,40.37,16,40.37,34.48,0,14.41-2.53,23.86-18.44,29.35h0c15.5,3.43,15.28,18.56,16.28,30.91.6,7.72-.48,21.49,5.16,28.35l-36.36.25C885,231,888,216.73,886.37,207c-2.21-12.87-12-13.85-28-13.85H828.21v45.32h-33.6Zm33.6,54.55,39.33.24c14.09,0,19.92-3.42,19.92-15.78,0-11.83-6.53-14.72-20.62-14.72l-38.63-.12Z"/><path class="cls-2" d="M976.21,115.33h40.15l52.31,123.09h-34.6l-9.77-25.48-56.72.09-9.23,25.39h-34.9Zm.67,75.48h38.35l-19-48.79-.4.19Z"/><path class="cls-2" d="M1202.14,192.6c0,33.11-26.78,49-65.23,49-38.66,0-63.5-15.7-63.5-49l-.16-77.27h34.84l-.78,77.27c0,13.39,4,24.86,29.6,24.86,22.55,0,31.6-7.32,31.6-25.51V115.33h33.63Z"/><path class="cls-2" d="M1219.55,115.33h34.85v97.54h73.18v25.55h-108Z"/><path class="cls-2" d="M1339.31,115.33h34.62V238.42h-34.62Z"/><path class="cls-2" d="M1495.89,162.83c-2-12.18-19.05-26.58-34.75-26.58-28.39,0-37.89,20.19-37.89,41.64,0,20.41,9.94,39.53,38.33,39.53,19.32,0,31.89-10.79,34.31-26.91h36c-3.22,30.53-24.3,50.09-73,50.09-51.73,0-69.82-27.37-69.82-62.71,0-36.37,20.86-64.68,65.36-64.68,60.07,0,73.64,21.31,77.46,49.62Z"/></g></svg>